# xmcd
#
# Track frame offsets:
#  150
#  17722
#  33679
#  50135
#
# Disc length: 823 seconds
#
# Revision: 0
# Processed by: cddbd v1.5.1PL2 Copyright (c) Steve Scherf et al.
# Submitted via: Collectorz.com_Music_Collector 6.10
#
DISCID=32033504
DTITLE=Gurriers, The - Kamikaze EP
DYEAR=2005
DGENRE=
TTITLE0=Why Did I?
TTITLE1=Not Yet
TTITLE2=You Will Die
TTITLE3=Back On The Alcohol
EXTD=
EXTT0=
EXTT1=
EXTT2=
EXTT3=
PLAYORDER=
